HIERARCHY
ROOT hip
{
  OFFSET 0 0 0
  CHANNELS 6 Xposition Yposition Zposition Zrotation Yrotation Xrotation
  JOINT abdomen
  {
    OFFSET 0 20.6881 -0.73152
    CHANNELS 3 Zrotation Xrotation Yrotation
    JOINT chest
    {
      OFFSET 0 11.7043 -0.48768
      CHANNELS 3 Zrotation Xrotation Yrotation
      JOINT neck
      {
        OFFSET 0 22.1894 -2.19456
        CHANNELS 3 Zrotation Xrotation Yrotation
        JOINT head
        {
          OFFSET -0.24384 7.07133 1.2192
          CHANNELS 3 Zrotation Xrotation Yrotation
          JOINT leftEye
          {
            OFFSET 4.14528 8.04674 8.04672
            CHANNELS 3 Zrotation Xrotation Yrotation
            End Site
            {
              OFFSET 1 0 0
            }
          }
          JOINT rightEye
          {
            OFFSET -3.6576 8.04674 8.04672
            CHANNELS 3 Zrotation Xrotation Yrotation
            End Site
            {
              OFFSET 1 0 0
            }
          }
        }
      }
      JOINT rCollar
      {
        OFFSET -2.68224 19.2634 -4.8768
        CHANNELS 3 Zrotation Xrotation Yrotation
        JOINT rShldr
        {
          OFFSET -8.77824 -1.95073 1.46304
          CHANNELS 3 Zrotation Xrotation Yrotation
          JOINT rForeArm
          {
            OFFSET -28.1742 -1.7115 0.48768
            CHANNELS 3 Zrotation Xrotation Yrotation
            JOINT rHand
            {
              OFFSET -22.5879 0.773209 7.07136
              CHANNELS 3 Zrotation Xrotation Yrotation
              JOINT rThumb1
              {
                OFFSET -1.2192 -0.487915 3.41376
                CHANNELS 3 Zrotation Xrotation Yrotation
                JOINT rThumb2
                {
                  OFFSET -3.37035 -0.52449 3.41376
                  CHANNELS 3 Zrotation Xrotation Yrotation
                  End Site
                  {
                    OFFSET -1.78271 -1.18214 1.43049
                  }
                }
              }
              JOINT rIndex1
              {
                OFFSET -7.75947 0.938293 5.60832
                CHANNELS 3 Zrotation Xrotation Yrotation
                JOINT rIndex2
                {
                  OFFSET -2.54057 -0.884171 1.56538
                  CHANNELS 3 Zrotation Xrotation Yrotation
                  End Site
                  {
                    OFFSET -1.62519 -0.234802 1.16502
                  }
                }
              }
              JOINT rMid1
              {
                OFFSET -8.24714 1.18213 3.41376
                CHANNELS 3 Zrotation Xrotation Yrotation
                JOINT rMid2
                {
                  OFFSET -3.10165 -0.590103 1.0647
                  CHANNELS 3 Zrotation Xrotation Yrotation
                  End Site
                  {
                    OFFSET -2.48547 -0.328903 0.83742
                  }
                }
              }
              JOINT rRing1
              {
                OFFSET -8.82822 0.546677 1.51678
                CHANNELS 3 Zrotation Xrotation Yrotation
                JOINT rRing2
                {
                  OFFSET -2.60934 -0.819778 -0.0198488
                  CHANNELS 3 Zrotation Xrotation Yrotation
                  End Site
                  {
                    OFFSET -2.33842 -0.294052 0.168128
                  }
                }
              }
              JOINT rPinky1
              {
                OFFSET -8.27202 -0.0477905 -0.4584
                CHANNELS 3 Zrotation Xrotation Yrotation
                JOINT rPinky2
                {
                  OFFSET -1.82734 -0.647385 -0.700984
                  CHANNELS 3 Zrotation Xrotation Yrotation
                  End Site
                  {
                    OFFSET -1.69225 -0.51767 -0.607171
                  }
                }
              }
            }
          }
        }
      }
      JOINT lCollar
      {
        OFFSET 2.68224 19.2634 -4.8768
        CHANNELS 3 Zrotation Xrotation Yrotation
        JOINT lShldr
        {
          OFFSET 8.77824 -1.95073 1.46304
          CHANNELS 3 Zrotation Xrotation Yrotation
          JOINT lForeArm
          {
            OFFSET 28.1742 -1.7115 0.48768
            CHANNELS 3 Zrotation Xrotation Yrotation
            JOINT lHand
            {
              OFFSET 22.5879 0.773209 7.07136
              CHANNELS 3 Zrotation Xrotation Yrotation
              JOINT lThumb1
              {
                OFFSET 1.2192 -0.487915 3.41376
                CHANNELS 3 Zrotation Xrotation Yrotation
                JOINT lThumb2
                {
                  OFFSET 3.37035 -0.52449 3.41376
                  CHANNELS 3 Zrotation Xrotation Yrotation
                  End Site
                  {
                    OFFSET 1.78271 -1.18214 1.43049
                  }
                }
              }
              JOINT lIndex1
              {
                OFFSET 7.75947 0.938293 5.60832
                CHANNELS 3 Zrotation Xrotation Yrotation
                JOINT lIndex2
                {
                  OFFSET 2.54057 -0.884171 1.56538
                  CHANNELS 3 Zrotation Xrotation Yrotation
                  End Site
                  {
                    OFFSET 1.62519 -0.234802 1.16502
                  }
                }
              }
              JOINT lMid1
              {
                OFFSET 8.24714 1.18213 3.41376
                CHANNELS 3 Zrotation Xrotation Yrotation
                JOINT lMid2
                {
                  OFFSET 3.10165 -0.590103 1.0647
                  CHANNELS 3 Zrotation Xrotation Yrotation
                  End Site
                  {
                    OFFSET 2.48547 -0.328903 0.83742
                  }
                }
              }
              JOINT lRing1
              {
                OFFSET 8.82822 0.546677 1.51678
                CHANNELS 3 Zrotation Xrotation Yrotation
                JOINT lRing2
                {
                  OFFSET 2.60934 -0.819778 -0.0198488
                  CHANNELS 3 Zrotation Xrotation Yrotation
                  End Site
                  {
                    OFFSET 2.33842 -0.294052 0.168128
                  }
                }
              }
              JOINT lPinky1
              {
                OFFSET 8.27202 -0.0477905 -0.4584
                CHANNELS 3 Zrotation Xrotation Yrotation
                JOINT lPinky2
                {
                  OFFSET 1.82734 -0.647385 -0.700984
                  CHANNELS 3 Zrotation Xrotation Yrotation
                  End Site
                  {
                    OFFSET 1.69225 -0.51767 -0.607171
                  }
                }
              }
            }
          }
        }
      }
    }
  }
  JOINT rButtock
  {
    OFFSET -8.77824 4.35084 1.2192
    CHANNELS 3 Zrotation Xrotation Yrotation
    JOINT rThigh
    {
      OFFSET 0 -1.70687 -2.19456
      CHANNELS 3 Zrotation Xrotation Yrotation
      JOINT rShin
      {
        OFFSET 0 -36.8199 0.73152
        CHANNELS 3 Zrotation Xrotation Yrotation
        JOINT rFoot
        {
          OFFSET 0.73152 -45.1104 -5.12064
          CHANNELS 3 Zrotation Xrotation Yrotation
          End Site
          {
            OFFSET -1.1221 -3.69964 12.103
          }
        }
      }
    }
  }
  JOINT lButtock
  {
    OFFSET 8.77824 4.35084 1.2192
    CHANNELS 3 Zrotation Xrotation Yrotation
    JOINT lThigh
    {
      OFFSET 0 -1.70687 -2.19456
      CHANNELS 3 Zrotation Xrotation Yrotation
      JOINT lShin
      {
        OFFSET 0 -36.8199 0.73152
        CHANNELS 3 Zrotation Xrotation Yrotation
        JOINT lFoot
        {
          OFFSET -0.73152 -45.1104 -5.12064
          CHANNELS 3 Zrotation Xrotation Yrotation
          End Site
          {
            OFFSET 1.1221 -3.69964 12.103
          }
        }
      }
    }
  }
}
MOTION
Frames:	4
Frame Time:	0.00833333
-134.686 85.0966 -13.1311 0.0 0.0 0.0 0.283893 -0.00291391 0.00816072 0.078459 -0.00473298 0.0135944 -6.85129e-15 7.95139e-16 -1.24241e-17 -2.04686e-14 9.54166e-15 -4.50372e-17 -0.0 0.0 0.0 -0.0 0.0 0.0 -3.43051e-15 -6.0179e-18 4.96962e-17 -7.00231e-14 7.45443e-17 7.95139e-16 -1.24315e-12 3.63975e-13 1.27222e-14 -1.41746e-11 -4.04601e-13 -3.49861e-14 -3.34462e-11 -9.43289e-14 -6.36111e-14 -5.77577e-11 -1.7175e-13 -1.28017e-13 -3.34419e-11 -9.42239e-14 -7.31528e-14 7.73091 5.47488 0.417314 -3.34452e-11 -9.49197e-14 -6.04305e-14 2.90554 0.965183 0.102902 -3.34375e-11 -9.3727e-14 -7.4743e-14 10.2786 0.731801 0.0259123 -3.34485e-11 -9.30312e-14 -7.31528e-14 2.22167 -0.733487 -0.20892 -3.42779e-15 -5.82377e-18 -4.96962e-17 -7.51292e-14 2.91965e-16 -1.59028e-15 -1.23381e-12 -3.76299e-13 1.59028e-14 -1.41819e-11 3.4355e-13 -6.04305e-14 -3.34399e-11 -8.12166e-14 -8.90555e-14 -5.77462e-11 -1.46306e-13 -1.29608e-13 -3.34455e-11 -8.0309e-14 -7.63333e-14 -7.73091 5.47488 -0.417314 -3.34404e-11 -8.09054e-14 -7.95139e-14 -2.90554 0.965183 -0.102902 -3.34515e-11 -8.0806e-14 -7.39479e-14 -10.2786 0.731801 -0.0259123 -3.34378e-11 -8.07066e-14 -7.63333e-14 -2.22167 -0.733487 0.20892 -2.03217e-16 0.0 -3.88251e-19 0.668918 -3.85853 -0.0572482 -0.00341788 1.43794 -0.0274403 -0.455261 2.42105 0.10033 2.03217e-16 0.0 3.88251e-19 -0.23482 -2.72419 0.0299386 0.00662643 -0.616661 0.0579725 0.449434 3.34127 -0.117941
-128.957 83.5974 -19.3258 51.8286 89.5552 57.3638 0.171373 -0.108061 0.223422 0.860824 -0.275123 0.0866435 0.53597 -1.45036 0.446534 -1.20612 0.688586 0.791222 -0.0 0.0 0.0 -0.0 0.0 0.0 -1.53524e-15 1.15581e-13 -3.36264e-15 20.3392 4.78533 -0.892882 -4.7736 -2.29187 7.31779 0.00424692 -1.47863 -0.207574 -1.04428e-10 -3.07743e-11 -1.94107e-10 -1.8025e-10 -5.30162e-11 -3.35775e-10 -1.04422e-10 -3.0776e-11 -1.94116e-10 7.73091 5.47488 0.417314 -1.04427e-10 -3.07765e-11 -1.94105e-10 2.90554 0.965183 0.102902 -1.04419e-10 -3.07749e-11 -1.94116e-10 10.2786 0.731801 0.0259123 -1.0443e-10 -3.07735e-11 -1.94113e-10 2.22167 -0.733487 -0.20892 -1.55922e-15 1.1558e-13 -3.51406e-15 -22.2634 9.74096 0.495317 5.30418 -2.67419 -7.97784 -0.193254 -9.81281 1.30802 2.86497e-11 5.36633e-12 1.03217e-10 4.77338e-11 1.12133e-11 1.79178e-10 2.86441e-11 5.36706e-12 1.03228e-10 -7.73091 5.47488 -0.417314 2.86495e-11 5.36593e-12 1.0322e-10 -2.90554 0.965183 -0.102902 2.86407e-11 5.36661e-12 1.03227e-10 -10.2786 0.731801 -0.0259123 2.86527e-11 5.36676e-12 1.03221e-10 -2.22167 -0.733487 0.20892 -2.03217e-16 0.0 -3.88251e-19 0.759753 -6.31721 7.26345 0.0277363 6.36099 0.115938 -1.78982 -0.935963 -12.2211 2.03217e-16 0.0 3.88251e-19 0.244544 -6.5762 -6.20991 -0.00226358 5.39096 -0.0582349 1.01381 0.493217 6.42085
-128.893 83.5963 -19.3414 57.9612 89.5097 63.5083 0.0496812 -0.218029 0.447672 1.68903 -0.562322 0.162963 1.12521 -2.98646 0.920144 -2.5043 1.41658 1.62983 -0.0 0.0 0.0 -0.0 0.0 0.0 5.13582e-16 2.44673e-13 -7.12829e-15 42.0042 9.81961 -1.85625 -9.19375 -4.5938 15.0984 -0.00311972 -3.07751 -0.432512 -1.76563e-10 -5.95651e-11 -3.99014e-10 -3.04706e-10 -1.02561e-10 -6.9022e-10 -1.76556e-10 -5.95689e-11 -3.99021e-10 7.73091 5.47488 0.417314 -1.76562e-10 -5.95691e-11 -3.99012e-10 2.90554 0.965183 0.102902 -1.76554e-10 -5.95672e-11 -3.99021e-10 10.2786 0.731801 0.0259123 -1.76565e-10 -5.95649e-11 -3.99016e-10 2.22167 -0.733487 -0.20892 4.61753e-16 2.4467e-13 -7.33329e-15 -45.9907 20.0236 1.07065 10.117 -5.33428 -16.4774 0.120612 -20.2666 2.83891 1.02174e-10 1.1618e-11 2.06974e-10 1.72952e-10 2.41989e-11 3.59476e-10 1.02169e-10 1.16185e-11 2.06983e-10 -7.73091 5.47488 -0.417314 1.02174e-10 1.16168e-11 2.06971e-10 -2.90554 0.965183 -0.102902 1.02168e-10 1.16181e-11 2.06979e-10 -10.2786 0.731801 -0.0259123 1.02178e-10 1.16183e-11 2.0697e-10 -2.22167 -0.733487 0.20892 -2.03217e-16 0.0 -3.88251e-19 1.53874 -8.71762 15.107 0.0334102 11.5689 0.271784 -4.72772 -4.09627 -25.3287 2.03217e-16 0.0 3.88251e-19 -0.167847 -10.4641 -12.9316 0.0152193 11.7409 -0.184563 2.31394 -2.45051 13.3524
-128.845 83.5968 -19.3343 56.5528 89.5392 62.1012 -0.051297 -0.318336 0.653952 2.42762 -0.815897 0.232762 1.67589 -4.35002 1.34304 -3.67542 2.06418 2.37504 -0.0 0.0 0.0 -0.0 0.0 0.0 2.2553e-15 3.46756e-13 -1.01873e-14 61.4771 14.3418 -2.75524 -12.603 -6.42795 22.0818 -0.0194819 -4.43566 -0.624384 -2.46391e-10 -9.21343e-11 -5.82194e-10 -4.25236e-10 -1.58705e-10 -1.00707e-09 -2.46383e-10 -9.21396e-11 -5.82201e-10 7.73091 5.47488 0.417314 -2.46389e-10 -9.21396e-11 -5.82193e-10 2.90554 0.965183 0.102902 -2.46382e-10 -9.21374e-11 -5.82199e-10 10.2786 0.731801 0.0259123 -2.46393e-10 -9.21344e-11 -5.82193e-10 2.22167 -0.733487 -0.20892 2.17792e-15 3.46752e-13 -1.04428e-14 -67.3579 29.2135 1.67801 13.7351 -7.40174 -24.1209 0.931464 -29.3724 4.43808 1.52829e-10 1.62614e-11 3.09828e-10 2.58694e-10 3.39325e-11 5.37792e-10 1.52823e-10 1.62618e-11 3.09835e-10 -7.73091 5.47488 -0.417314 1.52829e-10 1.62596e-11 3.0982e-10 -2.90554 0.965183 -0.102902 1.52825e-10 1.62615e-11 3.09829e-10 -10.2786 0.731801 -0.0259123 1.52834e-10 1.62617e-11 3.09817e-10 -2.22167 -0.733487 0.20892 -2.03217e-16 0.0 -3.88251e-19 2.79523 -10.5647 22.1667 0.0135376 16.2067 0.417113 -8.50511 -6.16624 -37.1091 2.03217e-16 0.0 3.88251e-19 -1.32424 -13.6315 -19.1252 0.0556644 17.406 -0.303781 4.06048 -4.895 19.5716
